<svg width="25" height="25" viewBox="0 0 25 25" fill="none" xmlns="http://www.w3.org/2000/svg">
<path d="M20.75 5.86108H17V5.11108C17 4.51435 16.7629 3.94205 16.341 3.52009C15.919 3.09814 15.3467 2.86108 14.75 2.86108H10.25C9.65326 2.86108 9.08097 3.09814 8.65901 3.52009C8.23705 3.94205 8 4.51435 8 5.11108V5.86108H4.25C3.85218 5.86108 3.47064 6.01912 3.18934 6.30042C2.90804 6.58173 2.75 6.96326 2.75 7.36108V19.3611C2.75 19.7589 2.90804 20.1404 3.18934 20.4217C3.47064 20.703 3.85218 20.8611 4.25 20.8611H20.75C21.1478 20.8611 21.5294 20.703 21.8107 20.4217C22.092 20.1404 22.25 19.7589 22.25 19.3611V7.36108C22.25 6.96326 22.092 6.58173 21.8107 6.30042C21.5294 6.01912 21.1478 5.86108 20.75 5.86108ZM9.5 5.11108C9.5 4.91217 9.57902 4.72141 9.71967 4.58075C9.86032 4.4401 10.0511 4.36108 10.25 4.36108H14.75C14.9489 4.36108 15.1397 4.4401 15.2803 4.58075C15.421 4.72141 15.5 4.91217 15.5 5.11108V5.86108H9.5V5.11108ZM20.75 7.36108V11.262C18.2185 12.6399 15.3822 13.3616 12.5 13.3611C9.61794 13.3616 6.78165 12.6403 4.25 11.263V7.36108H20.75ZM20.75 19.3611H4.25V12.9523C6.81868 14.2088 9.6405 14.8616 12.5 14.8611C15.3596 14.8611 18.1813 14.208 20.75 12.9514V19.3611ZM10.25 11.1111C10.25 10.9122 10.329 10.7214 10.4697 10.5808C10.6103 10.4401 10.8011 10.3611 11 10.3611H14C14.1989 10.3611 14.3897 10.4401 14.5303 10.5808C14.671 10.7214 14.75 10.9122 14.75 11.1111C14.75 11.31 14.671 11.5008 14.5303 11.6414C14.3897 11.7821 14.1989 11.8611 14 11.8611H11C10.8011 11.8611 10.6103 11.7821 10.4697 11.6414C10.329 11.5008 10.25 11.31 10.25 11.1111Z" fill="#5A5A5A"/>
</svg>
