<svg width="49" height="48" viewBox="0 0 49 48" fill="none" xmlns="http://www.w3.org/2000/svg">
<path d="M38.1444 10.1044C34.5138 6.50923 29.6094 4.49477 24.5 4.50001H24.2994C19.1625 4.55286 14.254 6.63063 10.6403 10.2819C7.02662 13.9331 4.99973 18.8629 5 24C5 32.0625 9.98375 38.8238 18.005 41.6569C18.9097 41.9759 19.8777 42.0732 20.8278 41.9409C21.7779 41.8085 22.6825 41.4503 23.4656 40.8962C24.2486 40.3421 24.8875 39.6084 25.3285 38.7565C25.7694 37.9045 25.9997 36.9593 26 36C26 35.2044 26.3161 34.4413 26.8787 33.8787C27.4413 33.3161 28.2043 33 29 33H37.6644C39.0254 33.0066 40.3477 32.5475 41.4119 31.6989C42.476 30.8504 43.2179 29.6634 43.5144 28.335C43.8497 26.8588 44.0126 25.3487 44 23.835C43.9809 21.2728 43.4535 18.7398 42.4483 16.3828C41.4432 14.0259 39.9803 11.8918 38.1444 10.1044ZM40.5819 27.675C40.4329 28.3368 40.0625 28.9279 39.5321 29.3507C39.0016 29.7734 38.3427 30.0025 37.6644 30H29C27.4087 30 25.8826 30.6322 24.7574 31.7574C23.6321 32.8826 23 34.4087 23 36C22.9993 36.4792 22.8838 36.9512 22.6633 37.3766C22.4427 37.802 22.1234 38.1684 21.7322 38.4451C21.3409 38.7218 20.8891 38.9007 20.4145 38.9669C19.9399 39.0331 19.4564 38.9847 19.0044 38.8256C12.2169 36.4313 8 30.75 8 24C7.99977 19.6533 9.71471 15.4822 12.7723 12.3927C15.8298 9.30317 19.9829 7.54496 24.3294 7.50001H24.4981C28.8447 7.51689 33.0105 9.24147 36.0972 12.3018C39.1839 15.3622 40.944 19.5131 40.9981 23.8594C41.0093 25.1428 40.8721 26.4231 40.5894 27.675H40.5819ZM26.75 14.25C26.75 14.695 26.618 15.13 26.3708 15.5C26.1236 15.8701 25.7722 16.1584 25.361 16.3287C24.9499 16.499 24.4975 16.5436 24.061 16.4568C23.6246 16.37 23.2237 16.1557 22.909 15.841C22.5943 15.5263 22.38 15.1254 22.2932 14.689C22.2064 14.2525 22.251 13.8001 22.4213 13.389C22.5916 12.9778 22.88 12.6264 23.25 12.3792C23.62 12.132 24.055 12 24.5 12C25.0967 12 25.669 12.2371 26.091 12.659C26.5129 13.081 26.75 13.6533 26.75 14.25ZM18.5 18.75C18.5 19.195 18.368 19.63 18.1208 20C17.8736 20.3701 17.5222 20.6584 17.111 20.8287C16.6999 20.999 16.2475 21.0436 15.811 20.9568C15.3746 20.87 14.9737 20.6557 14.659 20.341C14.3443 20.0263 14.13 19.6254 14.0432 19.189C13.9564 18.7525 14.001 18.3001 14.1713 17.889C14.3416 17.4778 14.63 17.1264 15 16.8792C15.37 16.632 15.805 16.5 16.25 16.5C16.8467 16.5 17.419 16.7371 17.841 17.159C18.2629 17.581 18.5 18.1533 18.5 18.75ZM18.5 29.25C18.5 29.695 18.368 30.13 18.1208 30.5C17.8736 30.8701 17.5222 31.1584 17.111 31.3287C16.6999 31.499 16.2475 31.5436 15.811 31.4568C15.3746 31.37 14.9737 31.1557 14.659 30.841C14.3443 30.5263 14.13 30.1254 14.0432 29.689C13.9564 29.2525 14.001 28.8001 14.1713 28.389C14.3416 27.9778 14.63 27.6264 15 27.3792C15.37 27.132 15.805 27 16.25 27C16.8467 27 17.419 27.2371 17.841 27.659C18.2629 28.081 18.5 28.6533 18.5 29.25ZM35 18.75C35 19.195 34.868 19.63 34.6208 20C34.3736 20.3701 34.0222 20.6584 33.611 20.8287C33.1999 20.999 32.7475 21.0436 32.311 20.9568C31.8746 20.87 31.4737 20.6557 31.159 20.341C30.8443 20.0263 30.63 19.6254 30.5432 19.189C30.4564 18.7525 30.501 18.3001 30.6713 17.889C30.8416 17.4778 31.13 17.1264 31.5 16.8792C31.87 16.632 32.305 16.5 32.75 16.5C33.3467 16.5 33.919 16.7371 34.341 17.159C34.7629 17.581 35 18.1533 35 18.75Z" fill="#5A5A5A"/>
</svg>
