<svg width="18" height="18" viewBox="0 0 18 18" fill="none" xmlns="http://www.w3.org/2000/svg">
<path d="M17.9999 8.99999C17.9999 9.1989 17.9209 9.38967 17.7803 9.53032C17.6396 9.67097 17.4488 9.74999 17.2499 9.74999H8.99993C8.80102 9.74999 8.61025 9.67097 8.4696 9.53032C8.32895 9.38967 8.24993 9.1989 8.24993 8.99999C8.24993 8.80108 8.32895 8.61031 8.4696 8.46966C8.61025 8.32901 8.80102 8.24999 8.99993 8.24999H17.2499C17.4488 8.24999 17.6396 8.32901 17.7803 8.46966C17.9209 8.61031 17.9999 8.80108 17.9999 8.99999ZM8.99993 3.74999H17.2499C17.4488 3.74999 17.6396 3.67097 17.7803 3.53032C17.9209 3.38967 17.9999 3.1989 17.9999 2.99999C17.9999 2.80108 17.9209 2.61031 17.7803 2.46966C17.6396 2.32901 17.4488 2.24999 17.2499 2.24999H8.99993C8.80102 2.24999 8.61025 2.32901 8.4696 2.46966C8.32895 2.61031 8.24993 2.80108 8.24993 2.99999C8.24993 3.1989 8.32895 3.38967 8.4696 3.53032C8.61025 3.67097 8.80102 3.74999 8.99993 3.74999ZM17.2499 14.25H8.99993C8.80102 14.25 8.61025 14.329 8.4696 14.4697C8.32895 14.6103 8.24993 14.8011 8.24993 15C8.24993 15.1989 8.32895 15.3897 8.4696 15.5303C8.61025 15.671 8.80102 15.75 8.99993 15.75H17.2499C17.4488 15.75 17.6396 15.671 17.7803 15.5303C17.9209 15.3897 17.9999 15.1989 17.9999 15C17.9999 14.8011 17.9209 14.6103 17.7803 14.4697C17.6396 14.329 17.4488 14.25 17.2499 14.25ZM4.7193 0.969365L2.24993 3.43968L1.28055 2.46936C1.13982 2.32863 0.948952 2.24957 0.749929 2.24957C0.550906 2.24957 0.360034 2.32863 0.219304 2.46936C0.0785732 2.6101 -0.00048828 2.80097 -0.000488281 2.99999C-0.000488283 3.19901 0.0785732 3.38988 0.219304 3.53062L1.7193 5.03061C1.78896 5.10035 1.87167 5.15567 1.96272 5.19341C2.05377 5.23115 2.15137 5.25058 2.24993 5.25058C2.34849 5.25058 2.44609 5.23115 2.53713 5.19341C2.62818 5.15567 2.7109 5.10035 2.78055 5.03061L5.78055 2.03061C5.92128 1.88988 6.00035 1.69901 6.00035 1.49999C6.00035 1.30097 5.92128 1.1101 5.78055 0.969365C5.63982 0.828634 5.44895 0.749573 5.24993 0.749573C5.05091 0.749573 4.86003 0.828634 4.7193 0.969365ZM4.7193 6.96936L2.24993 9.43968L1.28055 8.46936C1.13982 8.32863 0.948952 8.24957 0.749929 8.24957C0.550906 8.24957 0.360034 8.32863 0.219304 8.46936C0.0785732 8.6101 -0.000488281 8.80097 -0.000488281 8.99999C-0.000488281 9.09854 0.0189218 9.19612 0.0566338 9.28716C0.0943458 9.37821 0.149621 9.46093 0.219304 9.53061L1.7193 11.0306C1.78896 11.1003 1.87167 11.1557 1.96272 11.1934C2.05377 11.2312 2.15137 11.2506 2.24993 11.2506C2.34849 11.2506 2.44609 11.2312 2.53713 11.1934C2.62818 11.1557 2.7109 11.1003 2.78055 11.0306L5.78055 8.03061C5.92128 7.88988 6.00035 7.69901 6.00035 7.49999C6.00035 7.30097 5.92128 7.1101 5.78055 6.96936C5.63982 6.82863 5.44895 6.74957 5.24993 6.74957C5.05091 6.74957 4.86003 6.82863 4.7193 6.96936ZM4.7193 12.9694L2.24993 15.4397L1.28055 14.4694C1.21087 14.3997 1.12815 14.3444 1.0371 14.3067C0.946056 14.269 0.848475 14.2496 0.749929 14.2496C0.651383 14.2496 0.553801 14.269 0.462756 14.3067C0.371712 14.3444 0.288986 14.3997 0.219304 14.4694C0.149621 14.539 0.0943458 14.6218 0.0566338 14.7128C0.0189218 14.8039 -0.000488281 14.9014 -0.000488281 15C-0.000488281 15.0985 0.0189218 15.1961 0.0566338 15.2872C0.0943458 15.3782 0.149621 15.4609 0.219304 15.5306L1.7193 17.0306C1.78896 17.1003 1.87167 17.1557 1.96272 17.1934C2.05377 17.2312 2.15137 17.2506 2.24993 17.2506C2.34849 17.2506 2.44609 17.2312 2.53713 17.1934C2.62818 17.1557 2.7109 17.1003 2.78055 17.0306L5.78055 14.0306C5.92128 13.8899 6.00035 13.699 6.00035 13.5C6.00035 13.301 5.92128 13.1101 5.78055 12.9694C5.63982 12.8286 5.44895 12.7496 5.24993 12.7496C5.05091 12.7496 4.86003 12.8286 4.7193 12.9694Z" fill="#FEFFFB"/>
</svg>
