<svg width="25" height="24" viewBox="0 0 25 24" fill="none" xmlns="http://www.w3.org/2000/svg">
<path d="M3.5 7.5C3.5 7.30109 3.57902 7.11032 3.71967 6.96967C3.86032 6.82902 4.05109 6.75 4.25 6.75H7.25C7.44891 6.75 7.63968 6.82902 7.78033 6.96967C7.92098 7.11032 8 7.30109 8 7.5C8 7.69891 7.92098 7.88968 7.78033 8.03033C7.63968 8.17098 7.44891 8.25 7.25 8.25H4.25C4.05109 8.25 3.86032 8.17098 3.71967 8.03033C3.57902 7.88968 3.5 7.69891 3.5 7.5ZM20.75 15.75H17V14.25C17 14.0511 16.921 13.8603 16.7803 13.7197C16.6397 13.579 16.4489 13.5 16.25 13.5C16.0511 13.5 15.8603 13.579 15.7197 13.7197C15.579 13.8603 15.5 14.0511 15.5 14.25V18.75C15.5 18.9489 15.579 19.1397 15.7197 19.2803C15.8603 19.421 16.0511 19.5 16.25 19.5C16.4489 19.5 16.6397 19.421 16.7803 19.2803C16.921 19.1397 17 18.9489 17 18.75V17.25H20.75C20.9489 17.25 21.1397 17.171 21.2803 17.0303C21.421 16.8897 21.5 16.6989 21.5 16.5C21.5 16.3011 21.421 16.1103 21.2803 15.9697C21.1397 15.829 20.9489 15.75 20.75 15.75ZM13.25 15.75H4.25C4.05109 15.75 3.86032 15.829 3.71967 15.9697C3.57902 16.1103 3.5 16.3011 3.5 16.5C3.5 16.6989 3.57902 16.8897 3.71967 17.0303C3.86032 17.171 4.05109 17.25 4.25 17.25H13.25C13.4489 17.25 13.6397 17.171 13.7803 17.0303C13.921 16.8897 14 16.6989 14 16.5C14 16.3011 13.921 16.1103 13.7803 15.9697C13.6397 15.829 13.4489 15.75 13.25 15.75ZM10.25 10.5C10.4489 10.5 10.6397 10.421 10.7803 10.2803C10.921 10.1397 11 9.94891 11 9.75V8.25H20.75C20.9489 8.25 21.1397 8.17098 21.2803 8.03033C21.421 7.88968 21.5 7.69891 21.5 7.5C21.5 7.30109 21.421 7.11032 21.2803 6.96967C21.1397 6.82902 20.9489 6.75 20.75 6.75H11V5.25C11 5.05109 10.921 4.86032 10.7803 4.71967C10.6397 4.57902 10.4489 4.5 10.25 4.5C10.0511 4.5 9.86032 4.57902 9.71967 4.71967C9.57902 4.86032 9.5 5.05109 9.5 5.25V9.75C9.5 9.94891 9.57902 10.1397 9.71967 10.2803C9.86032 10.421 10.0511 10.5 10.25 10.5Z" fill="#313131"/>
</svg>
