<svg width="25" height="25" viewBox="0 0 25 25" fill="none" xmlns="http://www.w3.org/2000/svg">
<g clip-path="url(#clip0_2181_146)">
<path d="M11.7275 21.0429C11.687 21.2052 11.5933 21.3492 11.4615 21.4522C11.3297 21.5551 11.1673 21.611 11 21.6111C10.9368 21.6114 10.8738 21.6038 10.8125 21.5886L7.81251 20.8386C7.72899 20.8176 7.64971 20.7824 7.57814 20.7345L5.32814 19.2345C5.16267 19.1241 5.04783 18.9525 5.00889 18.7574C4.96994 18.5624 5.01009 18.3598 5.12048 18.1943C5.23088 18.0289 5.40249 17.914 5.59755 17.8751C5.79262 17.8362 5.99517 17.8763 6.16064 17.9867L8.30189 19.4145L11.1763 20.1336C11.2723 20.1568 11.3628 20.1989 11.4425 20.2572C11.5223 20.3156 11.5897 20.3892 11.6409 20.4737C11.6921 20.5582 11.7262 20.652 11.741 20.7497C11.7559 20.8474 11.7513 20.947 11.7275 21.0429ZM24.1672 11.9998C24.1057 12.1867 24.0077 12.3596 23.879 12.5085C23.7502 12.6573 23.5933 12.7792 23.4172 12.867L21.1972 13.977L16.0335 19.1417C15.9418 19.2332 15.828 19.2995 15.7031 19.334C15.5783 19.3685 15.4466 19.3701 15.3209 19.3386L9.32095 17.8386C9.22971 17.8157 9.14354 17.7759 9.06689 17.7214L3.86189 14.0051L1.58564 12.867C1.22989 12.6892 0.959333 12.3773 0.833457 12C0.707581 11.6228 0.736691 11.2109 0.914388 10.8551L3.24408 6.19669C3.42191 5.84094 3.73375 5.57039 4.11103 5.44451C4.48831 5.31863 4.90013 5.34774 5.25595 5.52544L7.32408 6.55669L12.2928 5.13732C12.4276 5.09876 12.5705 5.09876 12.7053 5.13732L17.6741 6.55669L19.7422 5.52544C20.098 5.34774 20.5098 5.31863 20.8871 5.44451C21.2644 5.57039 21.5762 5.84094 21.7541 6.19669L24.0838 10.8551C24.1726 11.0309 24.2257 11.2226 24.2401 11.4191C24.2544 11.6156 24.2296 11.813 24.1672 11.9998ZM19.8378 13.2129L17.2869 8.11106H14.3038L10.25 12.0486C11.4369 12.807 13.2978 13.0161 14.9675 11.3333C15.0979 11.2018 15.2723 11.1233 15.4572 11.1127C15.642 11.1021 15.8242 11.1603 15.9688 11.2761L19.1947 13.8608L19.8378 13.2129ZM2.25595 11.5254L3.91439 12.3551L6.24408 7.69669L4.58564 6.867L2.25595 11.5254ZM18.125 14.9229L15.5272 12.8426C13.6953 14.3426 11.3694 14.5404 9.44189 13.3114C9.25229 13.1908 9.0922 13.0291 8.97347 12.8383C8.85473 12.6475 8.78038 12.4325 8.7559 12.2091C8.73142 11.9858 8.75744 11.7597 8.83204 11.5478C8.90664 11.3358 9.02791 11.1433 9.18689 10.9845C9.18915 10.9818 9.19166 10.9793 9.19439 10.977L13.4 6.89794L12.5 6.64107L7.77314 7.992L5.2072 13.1229L9.8197 16.4183L15.2703 17.7804L18.125 14.9229ZM22.7413 11.5254L20.4144 6.867L18.756 7.69669L21.0856 12.3551L22.7413 11.5254Z" fill="#5A5A5A"/>
</g>
<defs>
<clipPath id="clip0_2181_146">
<rect width="24" height="24" fill="white" transform="translate(0.5 0.61084)"/>
</clipPath>
</defs>
</svg>
