<svg width="25" height="36" viewBox="0 0 25 36" fill="none" xmlns="http://www.w3.org/2000/svg">
<path d="M15 0.5H10C7.34872 0.502895 4.80687 1.55739 2.93213 3.43213C1.05739 5.30687 0.00289509 7.84872 0 10.5V25.5C0.00289509 28.1513 1.05739 30.6931 2.93213 32.5679C4.80687 34.4426 7.34872 35.4971 10 35.5H15C17.6513 35.4971 20.1931 34.4426 22.0679 32.5679C23.9426 30.6931 24.9971 28.1513 25 25.5V10.5C24.9971 7.84872 23.9426 5.30687 22.0679 3.43213C20.1931 1.55739 17.6513 0.502895 15 0.5ZM22.5 25.5C22.4979 27.4885 21.7071 29.3949 20.301 30.801C18.8949 32.2071 16.9885 32.9979 15 33H10C8.01151 32.9979 6.10506 32.2071 4.69898 30.801C3.29291 29.3949 2.50207 27.4885 2.5 25.5V10.5C2.50207 8.51151 3.29291 6.60506 4.69898 5.19898C6.10506 3.79291 8.01151 3.00207 10 3H15C16.9885 3.00207 18.8949 3.79291 20.301 5.19898C21.7071 6.60506 22.4979 8.51151 22.5 10.5V25.5ZM13.75 8V15.5C13.75 15.8315 13.6183 16.1495 13.3839 16.3839C13.1495 16.6183 12.8315 16.75 12.5 16.75C12.1685 16.75 11.8505 16.6183 11.6161 16.3839C11.3817 16.1495 11.25 15.8315 11.25 15.5V8C11.25 7.66848 11.3817 7.35054 11.6161 7.11612C11.8505 6.8817 12.1685 6.75 12.5 6.75C12.8315 6.75 13.1495 6.8817 13.3839 7.11612C13.6183 7.35054 13.75 7.66848 13.75 8Z" fill="url(#paint0_linear_2122_64)"/>
<defs>
<linearGradient id="paint0_linear_2122_64" x1="0.705991" y1="18" x2="23.5126" y2="18" gradientUnits="userSpaceOnUse">
<stop stop-color="#92EBFF"/>
<stop offset="0.513542" stop-color="#8B98FF"/>
<stop offset="1" stop-color="#67FE9B"/>
</linearGradient>
</defs>
</svg>
