<svg width="80" height="80" viewBox="0 0 80 80" fill="none" xmlns="http://www.w3.org/2000/svg">
<path d="M16.6666 8.55021H63.3333C65.9855 8.55021 68.529 9.60378 70.4044 11.4791C72.2797 13.3545 73.3333 15.898 73.3333 18.5502V45.2169C73.3333 47.869 72.2797 50.4126 70.4044 52.2879C68.529 54.1633 65.9855 55.2169 63.3333 55.2169H40.14L18.66 71.2435C18.164 71.6136 17.5749 71.8382 16.9585 71.8924C16.3421 71.9466 15.7228 71.8282 15.1699 71.5503C14.6171 71.2725 14.1524 70.8463 13.8281 70.3194C13.5037 69.7924 13.3324 69.1856 13.3333 68.5669V55.2135C11.5652 55.2135 9.86949 54.5112 8.61925 53.2609C7.36901 52.0107 6.66663 50.315 6.66663 48.5469V18.5469C6.66663 15.8947 7.72019 13.3512 9.59556 11.4758C11.4709 9.60044 14.0145 8.54688 16.6666 8.54688V8.55021Z" fill="#54EA87"/>
</svg>
